<svg xmlns="http://www.w3.org/2000/svg" xmlns:xlink="http://www.w3.org/1999/xlink" xmlns:lucid="lucid" width="619" height="790.5"><g transform="translate(-421 -60)" lucid:page-tab-id="0_0"><path d="M780 130.5h240v60H780z" fill="none"/><use xlink:href="#a" transform="matrix(1,0,0,1,780,130.5) translate(61.66666666666666 34.44444444444444)"/><path d="M620 80h240v60H620z" fill="none"/><use xlink:href="#b" transform="matrix(1,0,0,1,620,80) translate(88.61111111111111 34.44444444444444)"/><path d="M680.5 160.25a.25.25 0 0 1 .25.25v239a.25.25 0 0 1-.25.25.25.25 0 0 1-.25-.25v-239a.25.25 0 0 1 .25-.25zM681.5 560.25a.25.25 0 0 1 .25.25v239a.25.25 0 0 1-.25.25.25.25 0 0 1-.25-.25v-239a.25.25 0 0 1 .25-.25zM530.75 480.5a.25.25 0 0 1 .25-.25h299a.25.25 0 0 1 .25.25.25.25 0 0 1-.25.25H531a.25.25 0 0 1-.25-.25z" stroke="#3a414a" stroke-width=".5" fill="none"/><path d="M521.25 160.5a.25.25 0 0 1 .25-.25h299a.25.25 0 0 1 .25.25.25.25 0 0 1-.25.25h-299a.25.25 0 0 1-.25-.25zM530.75 800.5a.25.25 0 0 1 .25-.25h299a.25.25 0 0 1 .25.25.25.25 0 0 1-.25.25H531a.25.25 0 0 1-.25-.25z" stroke="#3a414a" stroke-width=".5" fill="none"/><path d="M740 450h240v60H740z" fill="none"/><use xlink:href="#c" transform="matrix(1,0,0,1,740,450) translate(106.45061728395062 34.44444444444444)"/><path d="M740 369.5h240v60H740z" fill="none"/><use xlink:href="#d" transform="matrix(1,0,0,1,740,369.5) translate(106.08024691358025 34.44444444444444)"/><path d="M740 534h240v60H740z" fill="none"/><use xlink:href="#e" transform="matrix(1,0,0,1,740,534) translate(106.08024691358025 34.44444444444444)"/><path d="M780 770.5h240v60H780z" fill="none"/><use xlink:href="#f" transform="matrix(1,0,0,1,780,770.5) translate(65.28024691358024 34.44444444444444)"/><path d="M530.75 399.5a.25.25 0 0 1 .25-.25h299a.25.25 0 0 1 .25.25.25.25 0 0 1-.25.25H531a.25.25 0 0 1-.25-.25zM531.75 559.5a.25.25 0 0 1 .25-.25h299a.25.25 0 0 1 .25.25.25.25 0 0 1-.25.25H532a.25.25 0 0 1-.25-.25z" stroke="#3a414a" stroke-width=".5" fill="none"/><path d="M441 405a6 6 0 0 1 6-6h68a6 6 0 0 1 6 6v148a6 6 0 0 1-6 6h-68a6 6 0 0 1-6-6z" fill="none"/><path d="M521 559c-5.52 0-10-4.48-10-10v-60c0-5.52-4.48-10-10-10 5.52 0 10-4.48 10-10v-60c0-5.52 4.48-10 10-10" stroke="#3a414a" fill="none"/><use xlink:href="#g" transform="matrix(1,0,0,1,446,404) translate(1.8518518518518547 79.44444444444444)"/><path d="M682 110c0 5.52-4.48 10-10 10s-10-4.48-10-10 4.48-10 10-10 10 4.48 10 10z" stroke="#3a414a" fill="#fff"/><defs><path fill="#3a414a" d="M130-224c-62 0-78 43-78 106 0 64 16 108 78 108s78-44 78-108c0-63-16-106-78-106zM145 3C61 9 15-34 15-118c0-80 37-120 115-120 77 0 115 42 115 120 1 59-21 95-62 112 19 19 30 53 71 46v12c-30 12-67 2-84-19" id="h"/><path fill="#3a414a" d="M104-123c39 3 61 21 62 59C167 7 83 12 19-4l-2-50h12c2 29 16 43 51 43 38 0 54-19 54-55 2-43-34-49-75-50v-14c37 0 64-7 64-48 0-47-47-56-81-36l-6 29H24v-46c51-13 135-13 131 51-2 34-20 52-51 57" id="i"/><path fill="#3a414a" d="M111-111v75H92v-75H18v-17h74v-75h19v75h74v17h-74" id="j"/><path fill="#3a414a" d="M110-14l48 5v9H32v-9l48-5v-192l-48 17v-10l69-39h9v224" id="k"/><path fill="#3a414a" d="M45-37c13 0 21 8 21 21C67-2 57 4 45 5 33 4 23-2 24-16c0-13 8-21 21-21" id="l"/><path fill="#3a414a" d="M134-68c4-52-44-63-88-51H29v-117h119v27H45v75c60-10 121-2 121 64C166 3 87 15 23-4l-2-50h12c1 28 14 43 47 43 39 0 51-20 54-57" id="m"/><path fill="#3a414a" d="M18-187l11-25 55 34-7-58h27l-8 58 56-34 11 25-59 17 59 17-11 25-56-33 8 57H77l7-57-55 34-11-25 57-18" id="n"/><path fill="#3a414a" d="M77-14l30 5v9H13v-9l30-5v-208l-30-4v-10h94v10l-30 4v208" id="o"/><path fill="#3a414a" d="M75-17c87 13 134-18 134-103 0-78-51-106-134-100v203zm171-102C246 5 139 7 10 0v-9l31-5v-208l-31-4v-10h107c82 0 129 35 129 117" id="p"/><path fill="#3a414a" d="M199-173c-1 36-21 56-49 65l64 94 26 5v9h-57l-66-103H75v89l35 5v9H13v-9l28-5v-208l-31-4v-10c80 4 190-20 189 63zM75-119c50 2 89-1 89-51 0-49-39-52-89-50v101" id="q"/><g id="a"><use transform="matrix(0.06172839506172839,0,0,0.06172839506172839,0,0)" xlink:href="#h"/><use transform="matrix(0.06172839506172839,0,0,0.06172839506172839,15.987654320987653,0)" xlink:href="#i"/><use transform="matrix(0.06172839506172839,0,0,0.06172839506172839,27.098765432098766,0)" xlink:href="#j"/><use transform="matrix(0.06172839506172839,0,0,0.06172839506172839,39.62962962962963,0)" xlink:href="#k"/><use transform="matrix(0.06172839506172839,0,0,0.06172839506172839,50.74074074074075,0)" xlink:href="#l"/><use transform="matrix(0.06172839506172839,0,0,0.06172839506172839,56.296296296296305,0)" xlink:href="#m"/><use transform="matrix(0.06172839506172839,0,0,0.06172839506172839,67.40740740740742,0)" xlink:href="#n"/><use transform="matrix(0.06172839506172839,0,0,0.06172839506172839,78.51851851851853,0)" xlink:href="#o"/><use transform="matrix(0.06172839506172839,0,0,0.06172839506172839,85.86419753086422,0)" xlink:href="#p"/><use transform="matrix(0.06172839506172839,0,0,0.06172839506172839,101.85185185185188,0)" xlink:href="#q"/></g><path fill="#3a414a" d="M130-224c-62 0-78 43-78 106 0 64 16 108 78 108s78-45 78-108-16-106-78-106zm0 228C53 4 15-39 15-118c-1-80 37-120 115-120s115 42 115 120C245-39 207 4 130 4" id="r"/><path fill="#3a414a" d="M124-13C89 8 26 15 26-45v-108c-8-3-24 2-21-12h50v118c-3 37 42 32 69 25v-131l-25-4v-8h54v153c8 3 24-2 21 12h-48" id="s"/><path fill="#3a414a" d="M54-38c-1 25 24 26 44 20v12C71 10 25 9 25-35v-115H4c-2-14 14-10 21-15l18-38h11v38h38v15H54v112" id="t"/><path fill="#3a414a" d="M65-12l28 4v8H7v-8l28-4v-226l-28-4v-8h58v238" id="u"/><path fill="#3a414a" d="M47-200c-23 0-25-39 0-38 13 0 18 7 20 19-1 11-8 19-20 19zM65-12l28 4v8H8v-8l28-4v-141l-24-4v-8h53v153" id="v"/><path fill="#3a414a" d="M84-170c49 0 66 33 63 87H46c-8 60 38 80 95 63v10C128-2 108 4 88 4 34 4 14-29 14-84c-1-54 22-86 70-86zm33 73c12-57-57-82-69-24-1 7-2 15-2 24h71" id="w"/><path fill="#3a414a" d="M57-145c16-10 35-24 60-25v45c-19 1-8-30-40-17l-20 6v124l29 4v8H7v-8l21-4v-141c-8-3-24 2-21-12h48" id="x"/><g id="b"><use transform="matrix(0.06172839506172839,0,0,0.06172839506172839,0,0)" xlink:href="#r"/><use transform="matrix(0.06172839506172839,0,0,0.06172839506172839,15.987654320987653,0)" xlink:href="#s"/><use transform="matrix(0.06172839506172839,0,0,0.06172839506172839,27.098765432098766,0)" xlink:href="#t"/><use transform="matrix(0.06172839506172839,0,0,0.06172839506172839,33.27160493827161,0)" xlink:href="#u"/><use transform="matrix(0.06172839506172839,0,0,0.06172839506172839,39.44444444444445,0)" xlink:href="#v"/><use transform="matrix(0.06172839506172839,0,0,0.06172839506172839,45.61728395061729,0)" xlink:href="#w"/><use transform="matrix(0.06172839506172839,0,0,0.06172839506172839,55.43209876543211,0)" xlink:href="#x"/></g><path fill="#3a414a" d="M24-231c66-21 156 2 128 81C132-92 78-66 39-27h121V0H16v-26l59-54c26-25 47-47 47-97 0-48-47-57-81-37l-6 29H24v-46" id="y"/><g id="c"><use transform="matrix(0.06172839506172839,0,0,0.06172839506172839,0,0)" xlink:href="#h"/><use transform="matrix(0.06172839506172839,0,0,0.06172839506172839,15.987654320987653,0)" xlink:href="#y"/></g><path d="M126-127c33 6 58 20 58 59 0 88-139 92-164 29-3-8-5-16-6-25l32-3c6 27 21 44 54 44 32 0 52-15 52-46 0-38-36-46-79-43v-28c39 1 72-4 72-42 0-27-17-43-46-43-28 0-47 15-49 41l-32-3c6-42 35-63 81-64 48-1 79 21 79 65 0 36-21 52-52 59" id="z"/><g id="d"><use transform="matrix(0.06172839506172839,0,0,0.06172839506172839,0,0)" xlink:href="#h"/><use transform="matrix(0.05925925925925927,0,0,0.05925925925925927,15.987654320987655,0)" xlink:href="#z"/></g><path d="M27 0v-27h64v-190l-56 39v-29l58-41h29v221h61V0H27" id="A"/><g id="e"><use transform="matrix(0.06172839506172839,0,0,0.06172839506172839,0,0)" xlink:href="#h"/><use transform="matrix(0.05925925925925927,0,0,0.05925925925925927,15.987654320987655,0)" xlink:href="#A"/></g><path d="M16-82v-28h88v28H16" id="B"/><path d="M33 0v-38h34V0H33" id="C"/><path d="M54-142c48-35 137-8 131 61C196 18 31 33 14-55l32-4c7 23 22 37 52 37 35-1 51-22 54-58 4-55-73-65-99-34H22l8-134h141v27H59" id="D"/><path d="M80-196l47-18 7 23-49 13 32 44-20 13-27-46-27 45-21-12 33-44-49-13 8-23 47 19-2-53h23" id="E"/><path d="M33 0v-248h34V0H33" id="F"/><path d="M30-248c118-7 216 8 213 122C240-48 200 0 122 0H30v-248zM63-27c89 8 146-16 146-99s-60-101-146-95v194" id="G"/><path d="M233-177c-1 41-23 64-60 70L243 0h-38l-65-103H63V0H30v-248c88 3 205-21 203 71zM63-129c60-2 137 13 137-47 0-61-80-42-137-45v92" id="H"/><g id="f"><use transform="matrix(0.06172839506172839,0,0,0.06172839506172839,0,0)" xlink:href="#h"/><use transform="matrix(0.05925925925925927,0,0,0.05925925925925927,15.987654320987655,0)" xlink:href="#A"/><use transform="matrix(0.05925925925925927,0,0,0.05925925925925927,27.839506172839506,0)" xlink:href="#B"/><use transform="matrix(0.05925925925925927,0,0,0.05925925925925927,34.89135802469136,0)" xlink:href="#A"/><use transform="matrix(0.05925925925925927,0,0,0.05925925925925927,46.74320987654321,0)" xlink:href="#C"/><use transform="matrix(0.05925925925925927,0,0,0.05925925925925927,52.669135802469135,0)" xlink:href="#D"/><use transform="matrix(0.05925925925925927,0,0,0.05925925925925927,64.52098765432099,0)" xlink:href="#E"/><use transform="matrix(0.05925925925925927,0,0,0.05925925925925927,72.81728395061728,0)" xlink:href="#F"/><use transform="matrix(0.05925925925925927,0,0,0.05925925925925927,78.7432098765432,0)" xlink:href="#G"/><use transform="matrix(0.05925925925925927,0,0,0.05925925925925927,94.09135802469136,0)" xlink:href="#H"/></g><g id="g"><use transform="matrix(0.06172839506172839,0,0,0.06172839506172839,0,0)" xlink:href="#o"/><use transform="matrix(0.06172839506172839,0,0,0.06172839506172839,7.345679012345679,0)" xlink:href="#p"/><use transform="matrix(0.06172839506172839,0,0,0.06172839506172839,23.333333333333332,0)" xlink:href="#q"/></g></defs></g></svg>